Coordinates
version=1
nRows=13
nColumns=36
inDegrees=yes

Units are S.I. units (second, meters, Newtons, ...)
If the header above contains a line with 'inDegrees', this indicates whether rotational values are in degrees (yes) or radians (no).

endheader
time	pelvis_tilt	pelvis_list	pelvis_rotation	pelvis_tx	pelvis_ty	pelvis_tz	hip_flexion_r	hip_adduction_r	hip_rotation_r	knee_angle_r	knee_angle_r_beta	ankle_angle_r	subtalar_angle_r	mtp_angle_r	hip_flexion_l	hip_adduction_l	hip_rotation_l	knee_angle_l	knee_angle_l_beta	ankle_angle_l	subtalar_angle_l	mtp_angle_l	lumbar_extension	lumbar_bending	lumbar_rotation	arm_flex_r	arm_add_r	arm_rot_r	elbow_flex_r	pro_sup_r	arm_flex_l	arm_add_l	arm_rot_l	elbow_flex_l	pro_sup_l
      0.00000000	      2.97787532	     -1.84836325	     -1.54619525	     -1.00086457	      1.29296638	     -0.05710181	     -5.41296696	      1.12966918	     -2.24949722	      7.58297894	      0.13234795	      2.52778603	    -19.63526488	     -6.34789752	     -4.63504655	     -2.83950849	     -0.05039230	      8.33036370	      0.14539227	      8.22779956	    -13.41787385	     -6.34789752	    -10.86078798	      2.69991363	     -0.78059486	      8.08141354	     -4.29528506	     19.12958396	     25.24214128	     77.71363999	      9.58930516	     -5.99196809	     12.56550047	     25.81256246	     72.21460274
      0.00416670	      0.62723779	     -0.68684174	     -1.70682857	     -0.99829921	      1.29270566	     -0.05774544	     -2.15612749	     -0.00358552	     -2.31969247	      8.62506940	      0.15053586	      6.70058850	    -16.34080328	     -6.47010891	     -0.95869167	     -1.19514821	     -0.74771550	      9.35143354	      0.16321331	      8.15344706	    -12.57370390	     -6.47010891	     -7.66754298	      1.67349734	     -0.76195462	      6.90333565	     -3.63643572	     15.88411534	     24.57649803	     79.15042816	      9.43167596	     -5.16993471	      6.94274016	     24.75532466	     72.49516369
      0.00833330	     -0.14131741	      0.44694543	     -1.97954134	     -0.99971908	      1.28780674	     -0.05879060	     -1.34750532	     -1.37364501	     -2.69123404	      8.13624950	      0.14200434	      7.58737697	    -15.19734390	     -6.58485258	      0.17416421	      0.02871789	     -1.84527462	      9.63340692	      0.16813467	      7.84754836	    -12.81828089	     -6.58485258	     -6.49627923	      0.21929565	     -0.55580883	      6.66871119	     -3.48986019	     16.69355526	     24.68399948	     79.78725580	      9.83719349	     -6.08275461	      9.30753800	     24.39691577	     72.78482587
      0.01250000	      0.22580251	      0.96175380	     -1.96656970	     -0.99954302	      1.29122016	     -0.05789031	     -1.96613551	     -2.03489275	     -2.68606406	      7.59392597	      0.13253901	      8.38301337	    -14.13349286	     -6.93016492	     -0.52218698	      0.71105538	     -1.92898939	      9.10366318	      0.15888890	      7.07583476	    -13.71014144	     -6.93016492	     -6.84261049	     -0.49048391	     -0.22046925	      6.52568069	     -3.60136564	     17.97571862	     24.83982178	     77.94127358	     10.40096035	     -6.70549792	     11.92636933	     23.95057645	     71.34522033
      0.01666670	      0.65457484	      1.17284124	     -2.00484176	     -0.99773277	      1.29483293	     -0.05698591	     -2.89618153	     -2.19379219	     -2.45941085	      6.79907558	      0.11866625	      8.68708452	    -13.53061297	     -6.97868913	     -1.35571483	      1.03453382	     -2.19028556	      8.42261477	      0.14700236	      6.69020173	    -13.93692605	     -6.97868913	     -7.34616470	     -0.77107169	     -0.01002691	      6.44870420	     -3.62582453	     18.47549057	     24.96067048	     77.44067288	     10.66585267	     -6.94065339	     12.81760898	     23.84927049	     70.91723117
      0.02083330	      1.07956907	      1.24064759	     -1.88849161	     -0.99778260	      1.29362850	     -0.05588607	     -3.72054481	     -2.15134241	     -2.42833757	      6.24873135	      0.10906094	      8.82176225	    -13.27260889	     -7.05818871	     -1.94734170	      1.13020335	     -2.31196792	      8.14881081	      0.14222358	      6.28599142	    -14.55361498	     -7.05818871	     -7.92348683	     -0.93052215	      0.16998649	      6.48404484	     -3.75750196	     19.31434052	     25.16458357	     76.53673078	     11.12777332	     -7.13283132	     13.91361637	     23.60222989	     70.19650745
      0.02500000	      1.25609144	      1.29285605	     -1.77088751	     -0.99868125	      1.29635393	     -0.05611327	     -4.16585805	     -2.09867571	     -2.07745966	      5.81760991	      0.10153645	      8.57229125	    -13.74578130	     -7.11359383	     -2.21824049	      1.20335035	     -2.13179400	      7.89371014	      0.13777123	      5.66493262	    -15.27648003	     -7.11359383	     -8.24528651	     -1.07078659	      0.41452152	      6.51793066	     -3.94213183	     20.38771652	     25.15888867	     75.81573922	     11.67897750	     -7.17834222	     15.15825018	     23.16169592	     69.53282969
      0.02916670	      1.36023140	      1.29742248	     -1.64451781	     -0.99782202	      1.30009107	     -0.05582724	     -4.50736164	     -2.02049917	     -1.93007626	      5.49919554	      0.09597907	      7.92060667	    -14.36644577	     -7.16608747	     -2.47946067	      1.17198148	     -2.20512553	      7.69058065	      0.13422595	      4.75505390	    -16.30926111	     -7.16608747	     -8.39482608	     -1.12859994	      0.50662619	      6.62984358	     -4.17723583	     22.06305540	     24.98067331	     76.87923866	     12.20388084	     -7.45704760	     18.20710844	     22.47921199	     69.30703658
      0.03333330	      1.67153060	      1.32516707	     -1.51326511	     -0.99599874	      1.30107141	     -0.05642856	     -5.15564132	     -2.00190247	     -2.10049748	      5.05819274	      0.08828212	      7.61084636	    -14.21248667	     -7.21884210	     -3.08544701	      1.16851985	     -2.51994767	      7.34197603	      0.12814166	      4.18755552	    -16.54765968	     -7.21884210	     -8.84734270	     -1.18805208	      0.54252356	      6.63085891	     -4.14497799	     22.28257604	     24.85543585	     75.34793313	     12.31169753	     -7.43197304	     18.30575447	     22.53577891	     68.11947250
      0.03750000	      1.72871282	      1.32720934	     -1.38037981	     -0.99843411	      1.29943184	     -0.05517974	     -5.34028525	     -1.92519941	     -1.90344466	      4.77506485	      0.08334060	      7.15412776	    -14.72449312	     -7.28457786	     -3.23095658	      1.12862574	     -2.54689793	      7.14143901	      0.12464162	      3.44956043	    -17.30681591	     -7.28457786	     -8.99267490	     -1.21982514	      0.52413338	      6.75632099	     -4.26816540	     23.56006747	     24.73302116	     74.73410336	     12.55178329	     -7.55542345	     19.58179446	     22.24772176	     67.31573285
      0.04166670	      1.87196713	      1.33051632	     -1.20608920	     -0.99824840	      1.29422258	     -0.05544490	     -5.61592129	     -1.88100785	     -2.00166508	      4.53563325	      0.07916173	      7.05462631	    -14.85282247	     -7.29004162	     -3.37515173	      1.11435099	     -2.58403181	      7.03341041	      0.12275617	      3.27783252	    -17.14086704	     -7.29004162	     -9.22232293	     -1.23509728	      0.43927665	      6.84523928	     -4.37922061	     24.25070536	     24.73499995	     75.00148146	     12.61957469	     -7.72027269	     20.49229927	     22.30099210	     67.06801022
      0.04583330	      1.90237550	      1.32501059	     -1.14243407	     -0.99905597	      1.29504535	     -0.05628123	     -5.64940707	     -1.84511342	     -1.88523155	      4.41992340	      0.07714222	      7.10734078	    -15.00403097	     -7.30166668	     -3.37941988	      1.13494938	     -2.49881317	      6.89829324	      0.12039793	      3.10243615	    -17.04764589	     -7.30166668	     -9.32907568	     -1.23413276	      0.40799623	      6.83030968	     -4.41799486	     24.19959915	     24.90062217	     74.51550286	     12.55714402	     -7.79680689	     20.52327669	     22.53242756	     66.75142064
      0.05000000	      1.91084111	      1.34723639	     -1.12778931	     -0.99809529	      1.29855387	     -0.05614330	     -5.76898622	     -1.84010641	     -1.82647869	      4.13587696	      0.07218467	      6.97049274	    -15.11058142	     -7.32949057	     -3.51160624	      1.15848277	     -2.32998071	      6.57488663	      0.11475342	      2.87251265	    -16.58034279	     -7.32949057	     -9.35492912	     -1.31157910	      0.47105209	      6.87745003	     -4.42685403	     24.62224746	     24.57884396	     74.01456562	     12.60418937	     -7.83479683	     21.03651888	     22.37198495	     66.37910714
